<?xml version="1.0" standalone="no"?>
<!DOCTYPE svg PUBLIC "-//W3C//DTD SVG 20010904//EN"
 "http://www.w3.org/TR/2001/REC-SVG-20010904/DTD/svg10.dtd">
<svg version="1.0" xmlns="http://www.w3.org/2000/svg"
 width="1500.000000pt" height="1500.000000pt" viewBox="0 0 1500.000000 1500.000000"
 preserveAspectRatio="xMidYMid meet">
<metadata>
Created by potrace 1.11, written by Peter Selinger 2001-2013
</metadata>
<g transform="translate(0.000000,1500.000000) scale(0.100000,-0.100000)"
fill="#000000" stroke="none">
<path d="M1793 14711 c0 -11 5 -17 9 -15 4 3 8 -1 8 -9 0 -8 8 -32 17 -53 9
-22 18 -42 19 -46 1 -5 3 -11 4 -15 1 -5 2 -11 1 -15 0 -5 3 -8 7 -8 4 0 8
-10 9 -22 1 -11 6 -24 12 -27 5 -4 13 -20 17 -36 4 -17 11 -36 17 -42 5 -7 6
-13 2 -13 -5 0 -1 -8 7 -17 9 -10 14 -26 13 -35 -2 -10 1 -18 6 -18 5 0 9 -9
9 -20 0 -11 5 -20 10 -20 6 0 9 -3 9 -7 -1 -5 0 -10 1 -13 1 -3 3 -12 5 -20 2
-8 11 -33 20 -55 10 -22 17 -42 17 -45 0 -3 4 -11 10 -17 6 -7 7 -13 3 -13 -4
0 -2 -7 5 -15 7 -8 9 -15 4 -15 -5 0 -3 -4 3 -8 7 -5 14 -20 15 -34 1 -15 6
-24 10 -22 4 3 8 -2 8 -11 0 -8 4 -23 9 -33 16 -29 36 -87 33 -94 -1 -5 3 -8
9 -8 5 0 7 -4 4 -10 -3 -5 -1 -10 5 -10 6 0 10 -6 9 -12 -1 -7 3 -26 10 -43 7
-16 11 -30 9 -30 -2 -1 5 -13 15 -28 9 -15 15 -27 13 -27 -3 0 15 -48 40 -107
25 -58 46 -114 47 -122 2 -9 11 -30 20 -47 9 -17 13 -34 10 -38 -4 -3 0 -6 7
-6 7 0 11 -3 7 -6 -3 -4 0 -19 8 -34 8 -15 11 -30 8 -34 -4 -3 -1 -6 5 -6 7 0
12 -9 12 -20 0 -11 5 -20 11 -20 5 0 8 -4 5 -8 -2 -4 1 -21 9 -37 11 -26 24
-58 30 -75 1 -3 5 -14 9 -25 17 -45 19 -50 20 -55 1 -3 7 -14 12 -25 10 -18
27 -76 24 -83 0 -1 6 -10 15 -18 8 -9 15 -24 15 -34 0 -10 5 -22 10 -25 6 -4
8 -11 5 -16 -4 -5 -1 -9 5 -9 6 0 9 -4 5 -9 -3 -5 0 -13 6 -16 5 -4 8 -13 5
-21 -3 -8 -2 -14 3 -14 5 0 15 -20 22 -45 7 -25 18 -45 23 -45 5 0 7 -3 4 -6
-4 -3 6 -36 22 -74 16 -38 26 -71 22 -74 -3 -3 0 -6 6 -6 7 0 12 -8 12 -18 0
-10 3 -22 8 -26 4 -4 7 -11 8 -14 0 -4 6 -20 12 -35 7 -16 12 -30 12 -33 0 -2
8 -23 19 -47 10 -23 29 -69 41 -102 30 -81 35 -96 48 -125 12 -25 34 -81 37
-90 1 -3 9 -22 18 -44 9 -21 17 -42 17 -47 0 -5 4 -17 9 -27 5 -9 14 -30 21
-47 7 -16 16 -38 21 -47 5 -10 9 -22 9 -27 0 -5 8 -26 17 -47 9 -22 17 -41 18
-44 0 -3 4 -11 8 -17 5 -7 6 -17 3 -22 -3 -5 1 -11 9 -15 8 -3 12 -12 9 -21
-3 -8 -1 -15 5 -15 6 0 11 -8 11 -18 0 -10 3 -22 8 -26 4 -4 8 -12 8 -17 1 -5
3 -11 4 -14 1 -3 3 -8 4 -12 1 -5 7 -18 14 -30 7 -13 9 -23 5 -23 -4 0 -2 -5
5 -12 7 -7 12 -20 12 -30 0 -10 5 -18 11 -18 6 0 9 -9 6 -20 -3 -11 0 -20 6
-20 7 0 13 -11 13 -25 1 -13 9 -32 18 -40 17 -18 21 -30 7 -21 -5 3 0 -11 10
-31 10 -20 16 -40 13 -44 -3 -5 0 -9 5 -9 6 0 11 -8 11 -18 0 -10 3 -22 8 -26
4 -4 7 -11 8 -14 0 -4 5 -18 11 -32 6 -14 12 -29 13 -35 1 -5 6 -16 12 -22 6
-7 8 -13 4 -13 -3 0 3 -16 14 -37 10 -20 17 -40 14 -45 -3 -4 0 -8 5 -8 6 0
11 -11 11 -25 0 -14 5 -25 11 -25 6 0 9 -7 5 -15 -3 -8 2 -19 12 -24 9 -5 16
-12 14 -15 -6 -11 10 -66 19 -66 5 0 8 -3 7 -7 -2 -10 10 -49 27 -88 19 -42
38 -88 40 -100 2 -5 4 -17 6 -25 2 -8 6 -17 9 -20 3 -3 30 -68 59 -145 30 -77
58 -146 64 -152 5 -7 6 -13 2 -13 -5 0 0 -9 9 -19 10 -11 15 -24 12 -30 -4 -5
-2 -12 4 -16 6 -4 8 -11 5 -16 -4 -5 -1 -9 4 -9 6 0 11 -9 11 -19 0 -11 5 -23
11 -26 6 -4 8 -13 5 -21 -3 -8 -2 -14 2 -14 4 0 16 -26 27 -57 11 -32 24 -61
30 -65 5 -4 6 -8 1 -8 -5 0 -2 -7 5 -17 8 -9 13 -19 13 -22 -2 -6 0 -11 35
-98 11 -29 17 -53 13 -53 -4 0 -1 -4 6 -9 7 -4 14 -18 15 -29 1 -12 4 -22 8
-22 4 0 13 -22 20 -50 7 -27 17 -50 21 -50 5 0 6 -4 3 -10 -3 -5 -1 -10 5 -10
7 0 10 -7 6 -15 -3 -8 -1 -15 4 -15 6 0 10 -8 10 -18 0 -10 4 -22 10 -28 5 -5
11 -18 13 -29 2 -11 8 -30 15 -41 6 -12 8 -24 5 -28 -3 -3 -1 -6 5 -6 7 0 11
-3 10 -7 0 -5 3 -17 7 -28 31 -76 44 -115 37 -115 -4 0 0 -5 8 -10 8 -5 15
-15 15 -22 1 -7 6 -24 12 -38 16 -37 30 -74 32 -83 0 -4 8 -21 16 -37 9 -17
12 -30 9 -30 -4 0 0 -8 9 -17 8 -10 17 -29 19 -43 1 -14 7 -28 11 -31 4 -3 9
-16 10 -27 1 -12 5 -22 10 -22 5 0 7 -7 3 -15 -3 -8 -2 -15 3 -15 5 0 12 -12
17 -27 9 -36 8 -32 26 -73 20 -46 31 -74 32 -80 1 -3 5 -11 9 -17 5 -7 10 -21
12 -30 2 -10 11 -36 20 -58 10 -22 17 -40 16 -40 -1 0 12 -31 28 -70 16 -38
27 -73 25 -77 -3 -4 -1 -8 4 -8 9 0 19 -23 28 -65 3 -11 9 -24 14 -29 6 -6 10
-18 10 -28 0 -10 5 -18 12 -18 6 0 8 -3 5 -7 -4 -3 0 -17 9 -31 11 -17 12 -22
3 -16 -11 6 -12 5 -2 -7 10 -12 51 -108 58 -134 1 -5 8 -23 15 -40 7 -16 13
-33 12 -37 -1 -5 3 -8 9 -8 5 0 8 -3 5 -8 -2 -4 6 -28 18 -54 12 -25 21 -54
20 -62 -1 -9 1 -16 4 -16 7 0 15 -18 37 -75 5 -11 7 -26 6 -34 -1 -8 2 -10 10
-5 7 4 10 3 6 -3 -4 -6 0 -25 9 -42 9 -18 17 -38 18 -45 1 -8 7 -20 14 -28 6
-8 12 -28 14 -45 1 -18 7 -31 13 -30 5 1 9 -6 7 -15 -1 -9 2 -19 8 -23 5 -3
10 -15 10 -26 0 -10 5 -19 11 -19 5 0 8 -4 5 -8 -2 -4 1 -21 9 -37 7 -17 23
-57 36 -90 12 -33 25 -64 29 -70 3 -5 12 -29 20 -52 7 -24 17 -43 21 -43 5 0
6 -6 3 -14 -3 -8 0 -17 5 -21 6 -3 9 -11 6 -16 -4 -5 -1 -9 4 -9 6 0 10 -3 9
-7 0 -5 2 -17 6 -28 5 -11 10 -27 14 -35 3 -8 4 -19 3 -23 -1 -4 6 -15 14 -24
9 -8 14 -22 11 -29 -3 -8 -2 -14 2 -14 4 0 18 -28 30 -62 27 -72 41 -106 53
-130 5 -10 9 -22 9 -27 0 -5 8 -26 17 -47 9 -22 17 -41 18 -44 0 -3 5 -12 10
-20 5 -8 10 -22 12 -30 1 -9 10 -34 19 -55 10 -22 18 -42 19 -45 2 -6 22 -57
32 -80 8 -20 10 -27 12 -46 1 -9 6 -12 14 -8 6 4 9 4 5 0 -4 -5 2 -31 14 -60
11 -28 25 -66 30 -83 5 -18 14 -33 20 -33 6 0 9 -3 5 -6 -3 -4 0 -21 8 -39 7
-19 11 -36 7 -39 -3 -3 -1 -6 5 -6 6 0 14 -12 18 -27 3 -16 13 -44 22 -63 8
-19 19 -44 23 -55 4 -11 15 -36 24 -57 9 -20 16 -42 16 -50 0 -8 5 -19 12 -26
7 -7 8 -12 3 -12 -6 0 -5 -4 2 -8 6 -4 13 -16 15 -27 1 -11 7 -23 11 -26 4 -3
9 -16 10 -27 1 -12 5 -22 10 -22 5 0 7 -7 3 -15 -3 -8 -1 -15 5 -15 6 0 7 -4
4 -10 -3 -5 -1 -10 5 -10 6 0 8 -4 5 -10 -3 -5 -2 -10 3 -10 5 0 9 -7 10 -15
1 -8 3 -22 4 -30 1 -8 5 -15 10 -15 4 0 7 -3 6 -7 -1 -5 6 -26 16 -48 10 -22
19 -48 21 -59 3 -10 9 -23 14 -30 5 -6 9 -13 10 -16 0 -7 12 -40 29 -80 8 -19
16 -43 18 -52 2 -10 13 -37 23 -60 25 -54 69 -168 73 -188 2 -8 6 -18 11 -21
4 -3 9 -14 11 -25 3 -10 12 -36 20 -57 9 -20 13 -37 9 -37 -5 0 -1 -5 7 -10 8
-5 16 -14 16 -20 1 -5 2 -11 3 -12 2 -2 5 -14 7 -28 2 -13 8 -27 12 -30 4 -3
14 -25 22 -50 7 -25 17 -49 20 -55 4 -5 15 -32 25 -60 10 -27 25 -66 33 -85 9
-19 16 -40 18 -45 1 -10 35 -95 55 -140 8 -19 30 -74 34 -85 1 -3 5 -13 8 -22
4 -10 10 -26 14 -35 3 -10 7 -20 8 -23 1 -3 9 -22 18 -44 9 -21 17 -40 17 -41
0 -1 8 -20 17 -41 9 -22 18 -43 19 -49 5 -20 29 -80 34 -85 3 -3 6 -12 8 -20
1 -8 7 -24 12 -35 18 -38 33 -80 32 -88 -1 -4 2 -7 6 -7 5 0 9 -6 10 -12 2
-24 8 -43 31 -91 12 -27 23 -58 24 -68 1 -10 5 -19 10 -19 4 0 5 -5 2 -10 -3
-6 -1 -10 4 -10 6 0 11 -7 11 -15 0 -9 8 -33 19 -54 10 -22 24 -60 32 -85 7
-25 17 -46 21 -46 4 0 8 -6 8 -14 0 -8 9 -36 21 -63 11 -26 21 -56 22 -65 1
-10 7 -20 15 -23 7 -3 11 -9 7 -15 -3 -5 -1 -17 5 -27 11 -19 33 -73 34 -85 1
-3 4 -10 9 -14 4 -4 7 -17 7 -30 0 -12 5 -24 11 -26 5 -2 11 -10 13 -18 8 -42
19 -70 27 -70 5 0 8 -3 7 -7 -4 -14 26 -103 34 -103 4 0 8 -9 8 -19 0 -11 5
-23 10 -26 6 -4 8 -11 5 -16 -4 -5 -1 -9 5 -9 6 0 9 -4 6 -8 -3 -5 1 -20 9
-35 7 -14 11 -28 7 -31 -3 -3 0 -6 7 -6 7 0 10 -4 6 -9 -3 -5 -1 -12 5 -16 6
-4 8 -11 5 -16 -4 -5 -1 -9 6 -9 7 0 10 -3 6 -6 -3 -4 1 -21 10 -38 10 -17 16
-37 15 -44 -2 -6 3 -12 9 -12 7 0 9 -3 6 -6 -3 -4 -1 -16 5 -28 7 -11 13 -24
14 -28 1 -5 3 -10 4 -13 1 -3 3 -8 5 -12 1 -5 7 -21 14 -38 7 -16 14 -37 16
-46 3 -16 9 -29 33 -76 7 -13 12 -27 12 -32 0 -5 8 -26 17 -47 9 -22 17 -41
18 -44 1 -3 7 -18 13 -33 7 -16 12 -35 12 -43 0 -8 5 -14 11 -14 5 0 8 -4 5
-9 -3 -4 1 -17 9 -27 8 -10 15 -29 15 -41 0 -13 4 -23 9 -23 7 0 17 -30 21
-68 1 -4 8 -15 17 -24 8 -9 12 -21 9 -27 -4 -5 -2 -12 3 -15 10 -6 42 -94 40
-110 0 -5 4 -12 11 -16 6 -4 12 -17 13 -28 1 -12 4 -22 8 -22 7 0 21 -47 17
-54 -2 -2 4 -12 13 -22 9 -11 19 -31 23 -46 3 -15 11 -40 18 -55 6 -15 12 -30
12 -33 1 -3 5 -11 9 -17 5 -7 5 -19 1 -25 -4 -7 -3 -10 1 -5 8 7 35 -52 37
-80 1 -7 5 -13 10 -13 5 0 6 -4 3 -10 -3 -5 -1 -10 6 -10 7 0 9 -3 6 -7 -4 -3
-1 -13 6 -21 10 -13 9 -14 -3 -7 -11 6 -10 3 2 -11 10 -11 21 -35 24 -52 4
-18 11 -32 16 -32 5 0 7 -4 3 -9 -3 -5 -1 -12 5 -16 5 -3 10 -14 10 -23 0 -9
7 -30 15 -46 8 -15 15 -35 15 -42 0 -8 4 -14 10 -14 5 0 9 -3 9 -7 -1 -8 0
-12 6 -30 13 -36 16 -49 15 -57 -1 -5 3 -12 8 -15 6 -3 12 -15 14 -26 1 -11 6
-22 9 -25 3 -3 16 -34 29 -70 13 -36 27 -69 32 -75 4 -5 8 -19 8 -32 0 -13 3
-23 8 -23 7 0 32 -63 34 -87 1 -7 5 -13 10 -13 4 0 7 -3 6 -7 -2 -5 6 -28 16
-53 10 -25 18 -47 18 -50 0 -3 9 -22 19 -43 11 -21 17 -42 14 -47 -3 -6 -1
-10 4 -10 6 0 11 -7 11 -16 0 -18 24 -14 26 4 1 7 2 13 4 15 1 1 3 9 5 17 2 8
21 59 43 113 23 53 38 97 34 97 -4 0 -1 4 6 9 7 4 14 18 15 29 1 12 5 22 9 22
4 0 7 3 6 8 -1 7 5 25 27 77 7 17 21 53 31 80 10 28 22 53 27 56 5 3 8 9 8 13
-1 3 -1 7 0 9 0 1 2 9 4 17 2 8 9 29 16 45 7 17 13 32 14 35 1 3 7 18 13 33 7
16 12 33 12 38 0 5 5 9 11 9 5 0 7 5 4 10 -4 6 -3 16 2 23 8 11 65 151 69 170
1 4 3 10 4 15 1 4 2 10 1 15 0 4 4 7 9 7 6 0 10 9 10 20 0 11 4 20 10 20 5 0
9 3 8 8 -2 8 18 73 37 117 46 106 54 128 49 136 -3 5 0 9 5 9 6 0 11 9 11 20
0 11 5 20 10 20 6 0 10 6 9 13 -2 20 12 57 23 57 5 0 7 3 5 8 -3 4 0 18 6 32
5 14 11 31 13 39 1 8 6 17 11 20 4 3 9 14 11 23 1 10 9 32 16 50 8 18 15 38
16 43 1 6 7 19 13 30 6 11 12 22 13 25 0 3 4 13 7 23 4 9 10 25 14 35 3 9 7
19 8 22 1 3 6 16 12 30 6 14 18 42 26 62 8 20 13 39 9 42 -3 3 1 6 8 6 7 0 11
3 8 6 -4 3 0 17 7 31 8 15 12 30 9 35 -3 4 -1 8 4 8 5 0 15 19 22 43 8 23 18
48 23 54 5 7 6 13 2 13 -5 0 0 10 11 22 10 12 13 18 7 14 -9 -5 -8 2 2 21 15
28 38 88 34 88 -1 0 7 18 18 40 12 22 21 42 21 45 0 3 6 19 13 35 7 17 12 33
11 38 -1 4 2 7 6 7 5 0 9 7 10 15 1 8 3 22 4 30 1 8 5 15 9 15 5 0 11 16 15
35 3 19 10 35 16 35 5 0 8 6 7 13 -1 6 5 28 13 47 28 66 32 75 33 85 1 6 9 25
18 43 10 17 15 32 11 32 -4 0 -2 6 4 13 9 10 37 78 46 112 1 6 10 28 20 49 9
22 19 50 22 63 4 13 11 23 16 23 6 0 8 7 4 15 -3 8 -1 15 5 15 6 0 8 4 4 9 -3
5 -1 12 5 16 6 4 8 11 5 16 -4 5 -1 9 5 9 7 0 10 7 6 15 -3 8 -1 15 5 15 6 0
7 5 4 10 -3 6 -1 10 6 10 7 0 9 3 6 7 -4 3 -3 11 2 17 6 7 12 25 15 41 3 15 9
31 14 34 5 3 13 20 17 36 11 40 10 36 24 70 8 17 17 39 21 50 4 11 15 36 23
55 9 19 13 38 11 42 -3 4 0 8 5 8 6 0 10 3 9 8 -1 4 3 17 10 28 6 12 8 24 5
28 -3 3 0 6 7 6 7 0 11 2 8 6 -3 3 9 40 27 83 18 43 35 90 39 105 3 14 11 26
16 26 5 0 7 9 5 20 -2 11 0 20 4 20 8 0 24 46 19 52 -1 2 5 14 12 28 8 14 15
27 15 30 0 3 7 16 15 30 7 14 12 25 11 25 -1 0 3 14 9 30 6 17 10 34 9 39 0 5
4 12 11 16 6 4 13 19 16 34 2 15 12 40 22 54 9 14 16 28 14 29 -6 6 22 73 31
73 4 0 6 4 3 9 -3 5 2 26 11 47 9 22 18 46 19 54 2 8 8 16 14 18 5 2 8 8 5 13
-3 4 2 20 11 34 9 14 13 25 10 25 -4 0 3 18 14 40 11 21 20 49 20 60 0 12 5
18 10 15 6 -3 10 5 10 19 0 14 4 27 10 31 5 3 7 12 3 20 -3 8 -1 15 5 15 12 0
34 59 26 71 -3 5 -1 9 4 9 5 0 21 33 36 73 16 39 34 86 41 102 7 17 19 47 26
67 7 21 17 38 22 38 4 0 5 5 2 10 -4 6 -1 17 5 25 7 8 10 15 7 15 -3 0 0 12 8
27 8 15 12 30 9 35 -3 4 -1 8 4 8 5 0 15 20 22 45 7 25 18 49 24 53 6 4 11 12
11 17 0 21 30 105 37 105 4 0 8 7 8 16 0 15 20 66 41 106 5 10 9 25 9 33 0 8
4 15 9 15 6 0 8 9 6 20 -2 11 3 24 12 28 8 5 14 11 12 13 -3 6 32 112 42 125
5 6 10 19 12 30 2 10 11 36 20 58 9 21 17 42 17 47 0 5 4 9 8 9 5 0 9 6 10 13
2 22 8 42 20 63 6 12 8 24 5 28 -3 3 -1 6 6 6 8 0 11 7 7 15 -3 8 -2 15 3 15
5 0 11 10 15 23 3 13 12 39 20 58 8 19 15 37 15 41 1 4 18 45 37 90 20 46 36
91 37 101 1 9 4 17 8 17 7 0 21 36 22 60 1 8 7 21 14 28 12 12 17 34 14 55 0
4 3 7 8 7 7 0 22 48 20 67 0 3 6 10 14 15 8 4 14 16 13 26 -2 9 1 20 6 23 5 3
10 16 11 27 1 12 5 22 9 22 4 0 12 19 19 43 6 23 16 48 22 56 7 8 10 15 9 15
-2 1 2 15 8 31 7 17 16 39 21 50 52 130 139 358 139 365 0 6 4 10 8 10 4 0 8
10 9 22 1 11 8 25 15 29 7 4 9 11 5 15 -4 4 -2 13 5 21 6 7 8 16 5 19 -3 4 1
13 9 21 8 8 12 19 9 24 -4 5 -1 9 4 9 6 0 11 7 11 15 0 8 12 40 26 72 14 32
26 66 27 76 1 9 5 17 9 17 4 0 8 9 8 19 0 11 5 23 10 26 6 4 8 11 5 16 -4 5
-1 9 6 9 7 0 10 3 7 6 -4 3 5 30 18 60 13 30 24 61 24 69 0 8 4 15 8 15 4 0 9
10 9 22 1 13 7 24 13 26 5 2 10 15 10 28 0 13 5 24 10 24 6 0 9 3 8 8 -3 10
22 84 33 98 5 6 6 14 2 17 -3 4 0 7 7 7 7 0 10 3 7 6 -3 4 -1 16 5 28 7 11 11
25 10 30 -2 5 5 17 14 27 9 11 14 19 10 19 -4 0 -2 9 4 21 6 11 13 30 15 41 3
12 10 25 17 30 7 4 9 8 4 8 -5 0 -3 7 4 15 7 8 9 15 5 15 -4 0 -2 7 5 15 6 8
9 18 6 24 -3 5 -1 11 4 13 6 2 12 10 14 18 3 14 16 50 33 90 3 8 7 18 7 22 1
3 4 10 9 14 4 4 7 16 7 26 0 10 5 18 12 18 6 0 9 3 5 6 -3 3 5 30 18 60 13 30
24 55 24 57 -1 3 20 55 42 105 10 23 19 51 19 62 0 11 4 20 9 20 5 0 11 10 14
23 6 27 30 90 37 97 3 3 7 14 8 25 2 11 8 23 14 26 5 3 9 9 8 13 -1 4 3 20 9
36 5 17 10 31 9 33 -1 1 5 13 12 27 8 14 15 30 16 35 9 34 50 131 59 137 5 4
6 8 1 8 -6 0 -5 5 2 12 7 7 12 18 12 26 0 8 7 29 15 48 37 85 43 100 47 119 1
11 9 26 16 33 6 7 12 22 12 33 0 10 5 19 11 19 5 0 8 4 5 8 -3 5 1 20 9 35 8
15 12 27 10 27 -2 0 2 12 10 27 8 15 12 30 9 35 -3 4 0 8 5 8 6 0 11 9 11 20
0 11 5 20 12 20 6 0 8 3 5 7 -4 3 -2 12 4 20 6 7 9 13 5 13 -4 0 3 18 14 41
12 23 19 44 16 47 -3 3 0 12 8 21 14 17 42 91 38 104 -1 4 2 7 8 7 5 0 10 7
10 16 0 9 6 30 14 47 36 79 83 206 78 211 -3 3 0 6 7 6 7 0 9 5 6 10 -3 6 -1
10 6 10 7 0 10 3 7 6 -6 5 25 89 59 161 8 18 11 37 7 44 -4 8 -3 9 4 5 7 -4
12 -4 13 1 3 30 11 57 25 78 9 14 13 25 10 25 -4 0 -1 10 6 23 7 12 11 25 10
30 -1 4 2 7 8 7 6 0 9 3 8 8 -3 9 18 67 38 105 9 15 13 27 9 27 -3 0 3 17 14
38 10 20 19 39 19 42 0 3 6 19 12 35 7 17 13 35 14 40 1 6 5 16 9 23 5 6 5 12
2 12 -4 0 1 7 9 16 9 8 16 24 16 34 0 10 5 22 10 25 6 4 8 11 5 16 -4 5 -1 9
4 9 6 0 10 3 9 8 -1 4 4 23 11 42 8 19 15 37 16 40 1 3 7 19 14 35 6 17 19 50
28 75 9 25 21 51 26 58 5 6 6 12 2 12 -4 0 -2 6 4 13 6 8 8 17 4 20 -3 4 0 7
7 7 7 0 10 3 7 7 -4 3 -2 12 4 20 6 7 8 13 3 13 -5 0 -3 4 4 9 7 4 14 18 15
29 1 12 5 22 10 22 4 0 5 5 2 10 -3 6 -1 10 6 10 7 0 10 3 7 6 -4 3 7 37 23
76 16 39 29 77 29 84 0 8 5 14 10 14 6 0 10 7 10 16 0 9 6 30 14 47 30 70 56
140 56 153 0 8 5 14 10 14 6 0 10 6 10 14 0 7 7 30 15 50 8 20 15 37 14 38 0
2 6 16 15 32 8 16 13 33 10 38 -3 4 0 8 6 8 6 0 8 5 5 10 -3 6 -1 10 5 10 6 0
8 5 4 11 -3 6 -1 14 5 18 6 4 14 21 17 37 3 16 10 31 15 35 6 3 10 9 9 13 -2
14 24 86 31 86 5 0 6 7 3 15 -4 8 -1 15 6 15 7 0 10 7 6 15 -3 8 -1 15 4 15 6
0 10 8 10 18 0 10 5 23 12 30 7 7 8 12 2 12 -5 0 -3 4 3 8 7 5 14 20 15 35 1
15 6 27 10 27 4 0 8 9 8 20 0 11 5 20 12 20 6 0 9 3 5 6 -3 3 5 30 18 60 13
30 21 54 18 54 -3 0 0 6 6 13 6 8 8 17 4 20 -3 4 -1 7 5 7 7 0 12 9 12 20 0
11 5 20 10 20 6 0 9 3 8 8 -3 13 23 92 30 92 4 0 9 10 9 22 1 13 7 24 13 26 5
2 8 8 5 12 -5 9 -2 17 23 67 7 13 12 29 12 37 0 8 7 22 16 30 8 9 13 16 10 16
-3 0 4 24 15 53 12 28 22 57 24 62 1 6 10 28 21 50 10 22 19 45 20 50 0 6 6
21 11 35 28 64 36 85 37 90 4 17 71 177 79 188 5 6 6 12 2 12 -4 0 -2 7 5 15
7 8 9 15 5 15 -4 0 0 11 9 25 9 14 14 25 11 25 -3 0 2 15 12 33 9 17 18 39 19
47 2 8 7 23 13 35 5 11 27 65 49 120 21 55 43 109 47 120 5 11 9 22 10 25 1 3
7 18 13 33 7 16 12 35 12 43 0 8 5 14 10 14 6 0 10 7 10 16 0 8 5 25 12 37 7
12 12 27 13 32 0 6 8 27 18 49 9 21 17 40 17 42 0 1 5 15 12 31 6 15 12 31 12
35 1 3 4 10 9 14 4 4 7 11 7 16 0 4 -2569 8 -5709 8 -5635 0 -5710 0 -5708
-19z m795 -498 c6 -2 12 2 12 8 0 8 4 8 13 1 7 -6 19 -7 26 -3 7 5 27 6 45 2
40 -8 68 -7 83 2 6 4 15 3 18 -3 5 -8 11 -7 21 1 11 9 14 9 14 -1 0 -10 3 -10
14 -1 8 7 17 8 20 3 6 -10 36 -9 54 2 7 4 12 2 12 -4 0 -6 5 -8 13 -3 16 10
37 13 37 4 0 -9 42 -7 58 3 7 4 12 2 12 -4 0 -6 5 -8 13 -3 16 10 37 13 37 4
0 -9 42 -7 58 3 7 4 12 2 12 -4 0 -6 5 -8 13 -3 16 10 37 13 37 4 0 -9 42 -7
58 3 7 4 12 2 12 -4 0 -6 5 -8 13 -3 18 11 37 12 37 2 0 -6 8 -5 20 1 11 6 20
7 20 3 0 -10 41 -10 58 1 7 4 12 2 12 -4 0 -6 5 -8 13 -3 18 11 37 12 37 2 0
-6 8 -5 20 1 11 6 20 7 20 3 0 -10 41 -10 58 1 7 4 12 2 12 -4 0 -6 5 -8 13
-3 18 11 37 12 37 2 0 -6 8 -5 20 1 11 6 20 7 20 3 0 -10 41 -10 58 1 7 4 12
2 12 -4 0 -6 5 -8 13 -3 16 10 37 13 37 5 0 -9 63 -7 78 2 6 3 14 2 17 -4 5
-8 11 -7 21 1 11 9 14 9 14 -1 0 -10 3 -10 14 -1 8 7 17 8 20 3 6 -10 36 -9
54 2 7 4 12 2 12 -4 0 -6 5 -8 13 -3 16 10 37 13 37 4 0 -9 42 -7 58 3 7 4 12
2 12 -4 0 -6 5 -8 13 -3 16 10 37 13 37 4 0 -9 42 -7 58 3 7 4 12 2 12 -5 0
-10 3 -10 11 -2 7 7 21 8 40 3 18 -5 31 -5 35 2 4 6 10 6 17 -1 7 -7 14 -7 24
0 10 9 13 8 13 -1 0 -10 3 -10 14 -1 8 7 16 8 19 4 6 -10 59 -9 75 1 6 3 14 2
17 -4 5 -8 11 -7 21 1 11 9 14 9 14 -1 0 -10 3 -10 14 -1 8 7 17 8 20 3 6 -10
36 -9 54 2 7 4 12 2 12 -4 0 -6 5 -8 13 -3 16 10 37 13 37 4 0 -9 42 -7 58 3
7 4 12 2 12 -4 0 -6 5 -8 13 -3 16 10 37 13 37 4 0 -9 42 -7 58 3 7 4 12 2 12
-5 0 -10 3 -10 11 -2 7 7 21 8 40 3 18 -5 31 -5 35 2 4 6 10 6 17 -1 7 -7 14
-7 24 0 10 9 13 8 13 -1 0 -10 3 -10 14 -1 10 9 16 9 21 1 5 -8 11 -8 21 1 8
6 14 7 14 2 0 -10 41 -10 58 1 7 4 12 2 12 -4 0 -6 5 -8 13 -3 18 11 37 12 37
2 0 -6 8 -5 20 1 11 6 20 7 20 3 0 -10 41 -10 58 1 7 4 12 2 12 -4 0 -6 5 -8
13 -3 18 11 37 12 37 2 0 -6 8 -5 20 1 11 6 20 7 20 3 0 -10 41 -10 58 1 7 4
12 2 12 -4 0 -6 5 -8 13 -3 18 11 37 12 37 2 0 -6 8 -5 20 1 11 6 20 7 20 3 0
-10 41 -10 58 1 7 4 12 2 12 -4 0 -6 5 -8 13 -3 16 10 37 13 37 4 0 -9 42 -7
58 3 7 4 12 2 12 -4 0 -6 5 -8 13 -3 16 10 37 13 37 4 0 -9 42 -7 58 3 7 4 12
2 12 -4 0 -6 5 -8 13 -3 16 10 37 13 37 4 0 -9 42 -7 58 3 7 4 12 2 12 -5 0
-10 3 -10 11 -2 7 7 21 8 40 3 18 -5 31 -5 35 2 4 6 10 6 17 -1 7 -7 14 -7 24
0 10 9 13 8 13 -1 0 -10 3 -10 14 -1 8 7 17 8 20 3 6 -10 36 -9 54 2 7 4 12 2
12 -4 0 -6 5 -8 13 -3 16 10 37 13 37 4 0 -9 42 -7 58 3 7 4 12 2 12 -4 0 -6
5 -8 13 -3 16 10 37 13 37 4 0 -9 42 -7 58 3 7 4 12 2 12 -5 0 -10 3 -10 11
-2 7 7 21 8 40 3 18 -5 31 -5 35 2 4 6 10 6 17 -1 7 -7 14 -7 24 0 10 9 13 8
13 -1 0 -10 3 -10 14 -1 8 7 17 8 20 3 6 -10 36 -9 54 2 7 4 12 2 12 -4 0 -6
5 -8 13 -3 16 10 37 13 37 4 0 -9 42 -7 58 3 7 4 12 2 12 -4 0 -6 5 -8 13 -3
16 10 37 13 37 4 0 -9 42 -7 58 3 7 4 12 2 12 -4 0 -6 5 -8 13 -3 16 10 37 13
37 4 0 -9 42 -7 58 3 7 4 12 2 12 -4 0 -6 5 -8 13 -3 18 11 37 12 37 2 0 -6 8
-5 20 1 11 6 20 7 20 3 0 -10 41 -10 58 1 7 4 12 2 12 -4 0 -6 5 -8 13 -3 18
11 37 12 37 2 0 -6 8 -5 20 1 11 6 20 7 20 3 0 -10 41 -10 58 1 7 4 12 2 12
-4 0 -6 5 -8 13 -3 18 11 37 12 37 2 0 -6 8 -5 20 1 11 6 20 7 20 3 0 -10 41
-10 58 1 7 4 12 2 12 -4 0 -6 5 -8 13 -3 16 10 37 13 37 5 0 -9 63 -7 78 2 6
3 14 2 17 -4 5 -8 11 -7 21 1 11 9 14 9 14 -1 0 -10 3 -10 14 -1 8 7 17 8 20
3 6 -10 36 -9 54 2 7 4 12 2 12 -4 0 -6 5 -8 13 -3 16 10 37 13 37 4 0 -9 42
-7 58 3 7 4 12 2 12 -4 0 -6 5 -8 13 -3 16 10 37 13 37 4 0 -9 42 -7 58 3 7 4
12 2 12 -5 0 -10 3 -10 11 -2 7 7 21 8 40 3 18 -5 31 -5 35 2 4 6 10 6 17 -1
7 -7 14 -7 24 0 10 9 13 8 13 -1 0 -10 3 -10 14 -1 8 7 16 8 19 4 6 -10 59 -9
75 1 6 3 14 2 17 -4 5 -8 11 -7 21 1 11 9 14 9 14 -1 0 -10 3 -10 14 -1 8 7
17 8 20 3 6 -10 36 -9 54 2 7 4 12 2 12 -4 0 -6 5 -8 13 -3 16 10 37 13 37 4
0 -9 42 -7 58 3 7 4 12 2 12 -4 0 -6 5 -8 13 -3 16 10 37 13 37 4 0 -9 42 -7
58 3 7 4 12 2 12 -5 0 -10 3 -10 11 -2 7 7 21 8 40 3 18 -5 31 -5 35 2 4 6 10
6 17 -1 7 -7 14 -7 24 0 10 9 13 8 13 -1 0 -10 3 -10 14 -1 10 9 16 9 21 1 5
-8 11 -8 21 1 8 6 14 7 14 2 0 -10 41 -10 58 1 7 4 12 2 12 -4 0 -6 5 -8 13
-3 18 11 37 12 37 2 0 -6 8 -5 20 1 11 6 20 7 20 3 0 -10 41 -10 58 1 7 4 12
2 12 -4 0 -6 5 -8 13 -3 18 11 37 12 37 2 0 -6 8 -5 20 1 11 6 20 7 20 3 0
-10 41 -10 58 1 7 4 12 2 12 -4 0 -6 5 -8 13 -3 18 11 37 12 37 2 0 -6 8 -5
20 1 11 6 20 7 20 3 0 -10 41 -10 58 1 7 4 12 2 12 -4 0 -6 5 -8 13 -3 16 10
37 13 37 4 0 -9 42 -7 58 3 7 4 12 2 12 -4 0 -6 5 -8 13 -3 16 10 37 13 37 4
0 -9 42 -7 58 3 7 4 12 2 12 -4 0 -6 5 -8 13 -3 16 10 37 13 37 4 0 -9 42 -7
58 3 7 4 12 2 12 -5 0 -10 3 -10 11 -2 7 7 21 8 40 3 18 -5 31 -5 35 2 4 6 10
6 17 -1 7 -7 14 -7 24 0 10 9 13 8 13 -1 0 -10 3 -10 14 -1 8 7 17 8 20 3 6
-10 36 -9 54 2 7 4 12 2 12 -4 0 -6 5 -8 13 -3 16 10 37 13 37 4 0 -9 42 -7
58 3 7 4 12 2 12 -4 0 -6 5 -8 13 -3 16 10 37 13 37 4 0 -9 42 -7 58 3 7 4 12
2 12 -5 0 -10 3 -10 11 -2 7 7 21 8 40 3 18 -5 31 -5 35 2 4 6 10 6 17 -1 7
-7 14 -7 24 0 10 9 13 8 13 -1 0 -10 3 -10 14 -1 8 7 17 8 20 3 6 -10 36 -9
54 2 7 4 12 2 12 -4 0 -6 5 -8 13 -3 16 10 37 13 37 4 0 -9 42 -7 58 3 7 4 12
2 12 -4 0 -6 5 -8 13 -3 16 10 37 13 37 4 0 -9 42 -7 58 3 7 4 12 2 12 -4 0
-6 5 -8 13 -3 16 10 37 13 37 4 0 -9 42 -7 58 3 7 4 12 2 12 -4 0 -6 5 -8 13
-3 18 11 37 12 37 2 0 -6 8 -5 20 1 11 6 20 7 20 3 0 -10 41 -10 58 1 7 4 12
2 12 -4 0 -6 5 -8 13 -3 18 11 37 12 37 2 0 -6 8 -5 20 1 11 6 20 7 20 3 0
-10 41 -10 58 1 7 4 12 2 12 -4 0 -6 5 -8 13 -3 18 11 37 12 37 2 0 -6 8 -5
20 1 11 6 20 7 20 3 0 -10 41 -10 58 1 7 4 12 2 12 -4 0 -6 5 -8 13 -3 16 10
37 13 37 5 0 -9 63 -7 78 2 6 3 14 2 17 -4 5 -8 11 -7 21 1 11 9 14 9 14 -1 0
-10 3 -10 14 -1 8 7 17 8 20 3 6 -10 36 -9 54 2 7 4 12 2 12 -4 0 -6 5 -8 13
-3 16 10 37 13 37 4 0 -9 42 -7 58 3 7 4 12 2 12 -4 0 -6 5 -8 13 -3 16 10 37
13 37 4 0 -9 42 -7 58 3 7 4 12 2 12 -5 0 -10 3 -10 11 -2 7 7 21 8 40 3 18
-5 31 -5 35 2 4 6 10 6 17 -1 7 -7 14 -7 24 0 10 9 13 8 13 -1 0 -10 3 -10 14
-1 8 7 16 8 19 4 6 -10 59 -9 75 1 6 3 14 2 17 -4 5 -8 11 -7 21 1 11 9 14 9
14 -1 0 -10 3 -10 14 -1 9 8 16 8 20 2 6 -9 43 -7 54 4 3 2 11 0 19 -6 10 -9
13 -8 13 2 0 11 2 11 10 -1 7 -11 10 -11 10 -2 0 8 5 10 13 5 6 -4 20 -6 30
-5 9 2 17 -2 17 -7 0 -6 -4 -11 -9 -11 -5 0 -8 -8 -6 -17 1 -10 -6 -29 -16
-43 -9 -14 -20 -42 -24 -63 -4 -20 -12 -34 -17 -31 -5 3 -8 0 -7 -7 2 -8 -5
-31 -14 -53 -9 -21 -17 -45 -17 -52 0 -8 -5 -14 -10 -14 -6 0 -9 -3 -8 -7 2
-9 -8 -44 -27 -88 -23 -57 -32 -80 -33 -88 -1 -4 -9 -21 -18 -38 -8 -17 -13
-37 -10 -45 3 -7 0 -13 -6 -11 -5 1 -12 -5 -13 -13 -2 -8 -9 -28 -16 -45 -7
-16 -13 -33 -13 -37 -1 -3 -4 -10 -8 -14 -5 -4 -8 -16 -8 -26 0 -10 -5 -18
-11 -18 -5 0 -8 -4 -4 -9 3 -5 1 -12 -5 -16 -6 -4 -8 -11 -5 -16 4 -5 1 -9 -5
-9 -6 0 -9 -4 -6 -9 3 -4 -3 -26 -13 -47 -11 -21 -17 -42 -14 -46 2 -5 -1 -8
-6 -8 -6 0 -11 -9 -11 -19 0 -11 -5 -23 -10 -26 -6 -4 -8 -10 -5 -15 3 -5 1
-11 -5 -15 -5 -3 -10 -15 -10 -26 0 -10 -5 -19 -11 -19 -6 0 -9 -6 -6 -13 3
-7 -1 -21 -9 -31 -7 -11 -11 -23 -8 -27 3 -5 0 -9 -5 -9 -6 0 -10 -3 -9 -7 1
-5 -5 -21 -12 -38 -7 -16 -14 -38 -15 -48 -1 -11 -8 -22 -15 -27 -7 -4 -9 -13
-6 -19 4 -6 3 -11 -2 -11 -5 0 -9 -6 -9 -12 0 -7 -19 -59 -42 -115 -22 -57
-41 -107 -41 -113 0 -5 -4 -10 -8 -10 -5 0 -9 -7 -10 -15 -1 -8 -3 -22 -4 -30
-1 -8 -7 -16 -14 -19 -7 -3 -11 -14 -9 -26 2 -11 -1 -20 -6 -20 -6 0 -7 -4 -4
-10 3 -5 1 -10 -4 -10 -6 0 -10 -3 -9 -7 3 -17 -15 -63 -25 -63 -6 0 -8 -3 -5
-6 4 -3 0 -21 -8 -40 -8 -19 -11 -34 -8 -34 4 0 0 -7 -7 -16 -7 -9 -14 -21
-15 -28 -1 -6 -10 -29 -20 -51 -10 -22 -18 -42 -19 -45 -3 -16 -40 -107 -48
-117 -5 -7 -6 -16 -3 -22 3 -5 1 -11 -4 -13 -6 -2 -12 -13 -13 -26 0 -12 -5
-22 -9 -22 -4 0 -8 -9 -8 -20 0 -11 -5 -20 -10 -20 -6 0 -9 -3 -8 -7 2 -5 -2
-21 -9 -38 -6 -16 -15 -39 -19 -50 -4 -11 -6 -23 -6 -27 1 -5 -2 -8 -8 -8 -5
0 -10 -6 -10 -14 0 -8 -5 -27 -12 -43 -6 -15 -12 -30 -13 -33 -1 -3 -7 -18
-14 -35 -7 -16 -15 -39 -17 -50 -2 -11 -8 -21 -13 -23 -6 -2 -7 -10 -4 -18 3
-8 0 -14 -6 -14 -6 0 -11 -7 -11 -16 0 -8 -5 -25 -12 -37 -7 -12 -13 -30 -15
-40 -2 -10 -12 -35 -23 -56 -10 -21 -16 -41 -13 -45 4 -3 1 -6 -6 -6 -8 0 -10
-7 -6 -21 4 -13 3 -19 -2 -16 -6 4 -16 -13 -23 -36 -7 -23 -22 -62 -33 -86
-11 -24 -20 -50 -20 -57 0 -8 -4 -14 -9 -14 -5 0 -6 -4 -3 -10 3 -5 1 -10 -4
-10 -6 0 -10 -3 -10 -7 3 -17 -14 -73 -22 -73 -5 0 -8 -3 -7 -7 2 -7 -28 -93
-53 -148 -12 -27 -32 -79 -33 -85 -1 -5 -39 -100 -63 -160 -8 -19 -19 -43 -24
-52 -5 -10 -9 -27 -9 -38 0 -11 -4 -20 -10 -20 -5 0 -10 -9 -10 -20 0 -11 -5
-20 -11 -20 -5 0 -7 -5 -4 -10 4 -6 3 -16 -3 -23 -5 -7 -17 -36 -27 -64 -11
-29 -22 -53 -26 -53 -4 0 -5 -10 -1 -22 4 -16 2 -19 -8 -13 -10 6 -12 4 -7 -8
3 -9 2 -19 -2 -22 -5 -2 -12 -17 -15 -31 -4 -14 -15 -45 -25 -68 -16 -35 -30
-68 -36 -86 -1 -3 -5 -13 -8 -22 -4 -10 -10 -26 -14 -35 -3 -10 -7 -21 -7 -25
-1 -3 -4 -10 -8 -14 -5 -4 -8 -16 -8 -26 0 -10 -4 -18 -10 -18 -5 0 -10 -9
-10 -19 0 -11 -5 -23 -11 -26 -6 -4 -8 -13 -5 -20 3 -8 -5 -26 -17 -41 -12
-16 -16 -25 -9 -20 6 4 3 -9 -9 -28 -12 -20 -18 -36 -14 -36 4 0 2 -6 -4 -13
-6 -8 -8 -17 -4 -20 3 -4 0 -7 -7 -7 -7 0 -11 -3 -7 -6 3 -4 -2 -23 -12 -43
-11 -20 -20 -40 -21 -46 -5 -20 -20 -60 -30 -77 -6 -10 -10 -26 -10 -37 0 -11
-5 -21 -11 -23 -6 -2 -12 -15 -12 -30 -1 -14 -5 -24 -9 -21 -5 2 -8 -5 -8 -16
0 -12 -5 -21 -11 -21 -5 0 -8 -4 -4 -10 3 -5 1 -17 -4 -27 -23 -45 -39 -88
-35 -95 3 -4 0 -8 -6 -8 -6 0 -8 -4 -5 -10 3 -5 1 -10 -4 -10 -6 0 -10 -3 -9
-7 2 -5 -7 -33 -19 -63 -43 -107 -46 -115 -45 -122 1 -5 -3 -8 -10 -8 -6 0 -9
-3 -5 -6 3 -4 0 -19 -9 -35 -8 -16 -12 -29 -8 -29 4 0 1 -7 -6 -15 -7 -8 -9
-15 -4 -15 5 0 3 -4 -4 -8 -7 -5 -14 -19 -17 -31 -2 -13 -9 -29 -16 -37 -6 -8
-9 -14 -5 -14 4 0 -3 -18 -14 -40 -11 -22 -18 -40 -14 -40 4 0 1 -7 -6 -15 -6
-8 -9 -18 -6 -24 3 -5 -1 -12 -10 -15 -9 -4 -14 -9 -11 -13 4 -3 2 -12 -4 -20
-6 -7 -8 -13 -4 -13 4 0 3 -6 -2 -12 -6 -7 -13 -25 -17 -40 -3 -16 -11 -28
-16 -28 -5 0 -7 -7 -4 -15 4 -8 1 -15 -5 -15 -6 0 -10 -3 -10 -7 1 -5 0 -11
-1 -15 -1 -5 -4 -12 -5 -18 -1 -5 -4 -12 -5 -15 -3 -6 -5 -12 -15 -42 -4 -13
-10 -23 -14 -23 -4 0 -8 -12 -9 -26 -1 -15 -7 -33 -12 -39 -6 -7 -13 -23 -15
-36 -3 -12 -10 -26 -16 -30 -6 -4 -8 -12 -5 -18 4 -6 2 -11 -3 -11 -6 0 -10
-3 -9 -7 3 -9 -28 -93 -48 -131 -7 -14 -11 -29 -8 -34 3 -4 0 -8 -6 -8 -6 0
-8 -4 -5 -10 3 -5 1 -10 -5 -10 -6 0 -9 -4 -6 -8 3 -5 -1 -20 -9 -35 -8 -15
-11 -27 -8 -27 3 0 1 -6 -4 -12 -5 -7 -20 -40 -33 -73 -12 -33 -29 -74 -36
-92 -8 -17 -14 -38 -14 -47 0 -9 -4 -16 -10 -16 -5 0 -10 -9 -10 -19 0 -11 -4
-22 -10 -26 -5 -3 -7 -12 -3 -20 3 -8 0 -15 -6 -15 -6 0 -11 -9 -11 -19 0 -11
-5 -23 -11 -26 -6 -4 -8 -13 -5 -21 3 -8 1 -14 -4 -14 -6 0 -10 -4 -10 -9 0
-5 -5 -22 -12 -38 -6 -15 -12 -30 -13 -33 -1 -3 -7 -18 -13 -33 -7 -16 -12
-33 -12 -38 0 -5 -5 -9 -11 -9 -5 0 -8 -4 -4 -9 5 -9 -13 -59 -25 -71 -3 -3
-6 -11 -7 -17 -2 -7 -4 -19 -5 -25 -2 -7 -7 -16 -11 -19 -5 -3 -9 -12 -10 -20
-2 -13 -33 -96 -59 -159 -19 -44 -26 -64 -56 -140 -47 -119 -54 -139 -54 -147
0 -4 -7 -17 -14 -28 -8 -11 -14 -27 -14 -37 0 -10 -5 -18 -11 -18 -5 0 -8 -4
-4 -9 3 -5 0 -13 -6 -16 -5 -4 -8 -13 -5 -21 3 -7 0 -17 -7 -21 -7 -5 -12 -12
-13 -18 -1 -24 -17 -65 -25 -65 -5 0 -6 -7 -3 -15 4 -8 1 -15 -7 -15 -7 0 -10
-3 -7 -6 4 -3 0 -17 -7 -31 -8 -15 -12 -30 -9 -35 3 -4 0 -8 -5 -8 -6 0 -11
-6 -11 -14 0 -7 -8 -31 -17 -52 -9 -22 -18 -42 -19 -46 -1 -5 -3 -11 -4 -15
-1 -5 -2 -11 -1 -15 0 -5 -3 -8 -9 -8 -6 0 -9 -3 -8 -7 3 -13 -25 -82 -32 -78
-4 2 -6 -6 -5 -18 1 -12 -7 -35 -18 -51 -12 -16 -15 -26 -8 -22 8 5 7 -2 -4
-17 -9 -14 -18 -32 -19 -39 -2 -7 -6 -20 -9 -28 -9 -21 -30 -74 -32 -80 -8
-25 -18 -48 -26 -62 -5 -10 -9 -25 -9 -33 0 -8 -5 -15 -12 -15 -6 0 -8 -3 -5
-7 4 -3 1 -13 -6 -21 -10 -13 -9 -14 3 -7 9 5 8 0 -4 -13 -11 -12 -16 -22 -11
-22 4 0 2 -7 -5 -15 -6 -8 -9 -19 -5 -25 3 -5 -1 -10 -9 -10 -9 0 -13 -6 -10
-14 3 -8 0 -17 -5 -21 -6 -3 -9 -10 -6 -15 3 -5 1 -11 -5 -15 -5 -3 -10 -15
-10 -26 0 -10 -5 -19 -12 -19 -6 0 -9 -3 -5 -6 3 -3 -5 -30 -18 -60 -13 -30
-24 -55 -24 -57 0 -1 -5 -15 -11 -32 -7 -16 -20 -51 -30 -78 -9 -26 -20 -50
-23 -54 -4 -3 -7 -15 -7 -25 0 -10 -5 -18 -11 -18 -5 0 -8 -4 -4 -9 3 -5 -4
-26 -16 -45 -11 -20 -19 -36 -16 -36 3 0 -5 -25 -19 -55 -13 -31 -24 -62 -24
-69 0 -8 -3 -16 -7 -18 -9 -3 -45 -96 -46 -115 0 -7 -4 -13 -9 -13 -4 0 -7 -3
-7 -8 1 -4 -4 -23 -12 -42 -7 -19 -12 -38 -11 -42 1 -5 -3 -8 -9 -8 -5 0 -8
-4 -4 -9 3 -5 1 -12 -5 -16 -6 -4 -8 -11 -5 -16 4 -5 1 -9 -5 -9 -7 0 -10 -6
-7 -14 3 -7 0 -19 -6 -25 -7 -7 -12 -15 -13 -19 -2 -24 -29 -92 -36 -92 -4 0
-8 -6 -8 -14 0 -8 -5 -27 -12 -43 -6 -15 -11 -31 -10 -35 1 -5 -2 -8 -8 -8 -6
0 -9 -3 -8 -7 1 -5 -4 -24 -11 -43 -8 -19 -13 -38 -12 -42 0 -5 -3 -8 -7 -8
-5 0 -9 -6 -9 -12 0 -7 -8 -31 -18 -53 -10 -22 -19 -44 -20 -50 0 -5 -7 -23
-15 -40 -7 -16 -14 -32 -15 -35 -5 -21 -20 -61 -35 -95 -21 -49 -33 -78 -35
-87 -2 -5 -4 -11 -5 -15 -1 -5 -2 -11 -1 -15 0 -5 -3 -8 -9 -8 -5 0 -10 -8
-10 -17 0 -10 -7 -31 -15 -47 -9 -16 -17 -37 -19 -45 -2 -9 -10 -32 -18 -51
-20 -45 -30 -75 -27 -75 2 0 -4 -13 -13 -30 -21 -38 -70 -167 -68 -179 1 -5
-2 -12 -7 -15 -11 -7 -59 -132 -55 -143 1 -5 -2 -8 -8 -8 -6 0 -9 -3 -8 -7 3
-16 -15 -63 -24 -63 -6 0 -8 -7 -4 -15 3 -8 1 -15 -4 -15 -6 0 -9 -3 -8 -7 4
-19 -15 -62 -25 -56 -6 3 -7 1 -3 -5 4 -7 1 -26 -7 -44 -8 -18 -22 -53 -32
-78 -9 -25 -23 -56 -32 -69 -9 -15 -10 -21 -3 -16 8 5 7 -2 -3 -21 -9 -16 -22
-45 -30 -64 -23 -55 -42 -104 -43 -112 -1 -5 -3 -11 -4 -15 -1 -5 -2 -11 -1
-16 0 -4 -3 -7 -9 -7 -5 0 -10 -9 -10 -20 0 -11 -5 -20 -11 -20 -5 0 -8 -3 -5
-8 2 -4 -2 -22 -9 -40 -8 -18 -15 -36 -16 -40 0 -4 -6 -16 -12 -27 -6 -11 -12
-26 -13 -33 -1 -8 -10 -30 -19 -49 -10 -20 -18 -41 -19 -47 -1 -6 -10 -28 -19
-50 -9 -21 -14 -43 -10 -49 3 -6 1 -7 -5 -3 -8 5 -12 0 -12 -13 0 -11 -5 -23
-11 -26 -5 -4 -8 -12 -6 -18 2 -7 -3 -18 -10 -26 -8 -7 -12 -20 -9 -27 3 -8 1
-14 -4 -14 -6 0 -10 -9 -10 -20 0 -11 -5 -20 -11 -20 -5 0 -8 -4 -4 -9 3 -5 1
-12 -5 -16 -5 -3 -10 -17 -10 -31 0 -13 -5 -24 -12 -24 -6 0 -8 -3 -5 -7 4 -3
0 -17 -8 -30 -9 -13 -13 -28 -10 -33 3 -6 1 -10 -4 -10 -6 0 -11 -8 -11 -18 0
-10 -7 -28 -16 -40 -8 -12 -13 -22 -10 -22 3 0 -6 -24 -19 -54 -13 -30 -21
-57 -18 -60 4 -3 1 -6 -5 -6 -7 0 -12 -9 -12 -20 0 -11 -5 -20 -11 -20 -5 0
-7 -4 -4 -10 3 -5 -2 -24 -12 -42 -9 -18 -17 -37 -18 -43 0 -5 -7 -23 -14 -40
-7 -16 -17 -39 -21 -50 -4 -11 -13 -33 -20 -50 -8 -16 -14 -34 -16 -40 -1 -5
-8 -23 -15 -40 -14 -34 -16 -40 -18 -57 -1 -9 -4 -9 -13 0 -7 7 -13 16 -14 20
0 4 -4 14 -7 22 -14 32 -25 65 -23 70 0 3 -7 18 -17 33 -9 15 -15 27 -12 27 3
0 0 10 -7 23 -7 12 -12 25 -13 29 0 3 -3 10 -7 14 -5 4 -8 16 -8 26 0 10 -5
18 -11 18 -5 0 -8 3 -5 8 2 4 -6 30 -19 57 -13 28 -24 56 -24 63 -1 8 -8 28
-16 45 -8 18 -23 56 -33 84 -10 29 -22 50 -25 46 -4 -3 -7 4 -7 16 0 12 -7 38
-16 59 -10 20 -19 46 -21 57 -2 10 -9 23 -16 27 -6 4 -9 8 -5 8 3 0 -9 36 -28
80 -18 44 -31 80 -29 80 2 0 -7 22 -20 49 -14 27 -25 55 -25 63 0 8 -4 18 -9
24 -5 5 -11 18 -13 29 -1 11 -5 22 -8 25 -7 7 -32 73 -33 87 0 7 -7 15 -14 17
-8 3 -11 11 -8 16 4 6 1 17 -5 25 -6 8 -9 18 -6 24 3 5 1 11 -4 13 -6 2 -13
12 -15 23 -2 11 -4 21 -5 23 -3 3 -7 19 -9 33 0 5 -5 8 -9 5 -4 -2 -9 5 -10
17 -1 12 -17 59 -37 105 -19 46 -35 90 -35 98 0 8 -5 14 -11 14 -5 0 -8 3 -6
8 3 4 -3 25 -14 46 -10 22 -17 41 -14 44 2 2 -2 11 -10 18 -8 8 -12 21 -9 29
4 8 1 15 -5 15 -6 0 -11 7 -11 15 0 9 -9 33 -20 54 -10 21 -16 41 -13 45 4 3
1 6 -6 6 -7 0 -11 6 -8 13 3 7 -1 21 -9 31 -7 11 -11 23 -8 27 3 5 0 9 -6 9
-7 0 -9 7 -6 15 3 9 0 18 -7 21 -7 2 -13 12 -14 22 -1 9 -10 35 -19 57 -10 22
-19 43 -20 48 -1 4 -3 9 -4 12 -1 3 -3 8 -4 13 -1 4 -10 25 -20 47 -10 22 -19
49 -22 60 -2 11 -8 21 -13 23 -6 2 -7 10 -4 18 3 8 0 14 -6 14 -6 0 -8 7 -5
15 4 8 1 15 -6 15 -6 0 -9 4 -5 9 3 5 1 12 -5 16 -5 3 -10 15 -10 26 0 10 -4
19 -10 19 -5 0 -7 7 -4 15 4 8 1 15 -6 15 -7 0 -10 7 -6 15 3 8 2 15 -3 15 -8
0 -18 24 -27 64 -3 11 -8 24 -13 30 -5 6 -11 20 -13 31 -1 11 -6 22 -10 25 -3
3 -8 14 -10 25 -1 11 -7 23 -11 26 -4 3 -9 16 -10 27 -1 12 -5 22 -9 22 -4 0
-8 7 -8 15 0 8 -4 23 -9 33 -17 31 -74 185 -74 198 0 7 -6 15 -13 18 -8 3 -11
12 -8 21 3 8 1 15 -5 15 -6 0 -10 3 -10 8 1 4 0 10 -1 15 -1 4 -3 10 -4 15 -1
4 -10 24 -19 46 -9 21 -17 42 -17 47 0 5 -4 17 -10 27 -15 25 -33 76 -32 85 1
4 -3 7 -9 7 -5 0 -7 5 -4 10 4 6 3 16 -2 23 -5 7 -18 35 -28 62 -10 28 -25 66
-34 85 -8 19 -15 37 -16 40 -2 7 -16 39 -33 80 -8 19 -16 40 -16 45 -1 6 -9
27 -18 48 -10 21 -19 45 -20 55 -2 9 -7 20 -11 23 -5 3 -10 12 -11 20 -2 8 -8
27 -14 42 -7 16 -12 30 -12 31 0 2 -8 21 -17 42 -9 22 -17 41 -18 44 -3 11
-24 64 -45 115 -6 17 -11 31 -11 33 1 1 -6 16 -14 32 -9 17 -13 35 -10 40 3 6
2 10 -3 10 -9 0 -27 47 -24 63 1 4 -3 7 -9 7 -5 0 -7 5 -4 10 3 6 3 10 -2 10
-7 0 -21 34 -34 80 -2 8 -6 17 -9 20 -3 3 -11 23 -19 45 -8 22 -18 51 -24 65
-6 14 -11 28 -11 32 -1 3 -4 10 -8 14 -5 4 -8 16 -8 26 0 12 -4 16 -12 12 -7
-4 -8 -3 -4 5 4 6 2 18 -4 26 -7 8 -10 15 -6 15 4 0 -1 11 -10 25 -9 14 -13
25 -10 25 4 0 -1 15 -11 33 -9 17 -18 35 -19 40 -1 4 -2 9 -3 12 0 3 -1 7 -1
10 0 3 -6 18 -14 34 -9 16 -12 31 -9 35 4 3 1 6 -5 6 -7 0 -12 8 -12 18 0 10
-4 22 -10 28 -5 5 -11 18 -13 29 -1 11 -10 35 -20 54 -9 18 -14 37 -11 42 3 5
0 9 -5 9 -6 0 -11 6 -11 13 0 6 -7 25 -15 41 -8 15 -12 32 -9 37 3 5 0 9 -5 9
-6 0 -10 3 -9 8 1 4 -4 18 -9 32 -35 83 -52 130 -45 130 4 0 1 4 -6 9 -7 4
-15 14 -16 22 -3 14 -11 37 -27 77 -5 12 -13 32 -18 45 -19 46 -24 62 -23 70
1 4 -3 7 -9 7 -6 0 -9 7 -5 15 3 8 1 15 -4 15 -6 0 -9 3 -8 8 1 8 -17 59 -32
84 -6 10 -10 26 -10 37 0 11 -4 21 -10 23 -5 2 -11 12 -13 23 -2 11 -9 34 -16
50 -7 17 -13 32 -13 35 0 3 -8 21 -19 41 -10 20 -15 39 -12 43 4 3 2 6 -4 6
-5 0 -10 6 -10 13 -2 20 -27 81 -38 89 -5 4 -6 8 -1 8 5 0 3 7 -4 15 -7 8 -9
15 -4 15 4 0 3 5 -4 12 -7 7 -12 20 -12 30 0 10 -5 18 -12 18 -6 0 -8 3 -5 6
3 4 2 15 -4 26 -6 11 -12 29 -14 40 -3 12 -10 25 -16 28 -6 4 -10 11 -10 16 1
5 -4 23 -10 39 -7 17 -13 35 -14 42 -2 7 -10 27 -19 44 -9 18 -16 38 -16 46 0
7 -4 13 -8 13 -4 0 -9 12 -10 27 -1 14 -8 34 -16 42 -7 9 -11 22 -9 29 3 6 0
12 -6 12 -6 0 -11 11 -11 24 0 13 -5 26 -10 28 -6 2 -12 13 -13 26 0 12 -6 22
-11 22 -5 0 -7 3 -4 6 4 3 -5 30 -18 60 -13 30 -24 61 -24 69 0 8 -5 15 -12
15 -6 0 -9 3 -5 6 3 4 0 19 -8 34 -8 15 -11 30 -8 34 4 3 1 6 -6 6 -7 0 -10 4
-6 9 3 5 1 12 -5 16 -5 3 -10 15 -10 26 0 10 -4 19 -9 19 -6 0 -8 9 -6 20 2
11 0 20 -6 20 -5 0 -9 5 -9 10 0 6 -9 29 -20 52 -11 22 -17 45 -14 49 3 5 0 9
-6 9 -7 0 -10 7 -6 15 3 8 2 15 -2 15 -12 0 -34 69 -26 81 4 7 3 9 -4 5 -10
-6 -25 21 -19 34 1 3 -6 18 -16 33 -9 15 -15 27 -12 27 3 0 0 10 -7 23 -7 12
-13 25 -14 30 -1 4 -3 10 -4 15 -1 4 -2 10 -1 15 0 4 -4 7 -9 7 -6 0 -10 11
-10 24 0 14 -4 28 -10 31 -5 3 -10 15 -10 25 0 10 -4 20 -9 22 -6 2 -12 15
-15 30 -2 14 -9 36 -16 47 -6 12 -7 21 -3 21 4 0 2 4 -5 8 -7 5 -14 19 -17 31
-2 13 -9 28 -14 35 -5 6 -9 13 -9 16 0 3 -7 22 -16 44 -9 21 -16 45 -16 52 0
8 -4 14 -8 14 -4 0 -8 8 -9 18 -1 9 -10 35 -19 57 -10 22 -17 43 -16 48 1 4
-3 7 -8 7 -5 0 -9 3 -9 8 3 16 -14 72 -22 72 -5 0 -9 9 -9 19 0 11 -5 23 -11
26 -6 4 -8 13 -5 21 3 8 1 14 -4 14 -6 0 -10 9 -10 20 0 11 -5 20 -11 20 -5 0
-7 5 -4 10 3 6 -4 24 -16 42 -13 17 -18 28 -11 24 8 -5 10 -2 6 8 -3 9 -10 16
-16 16 -5 0 -7 4 -4 8 3 5 -2 22 -10 38 -9 16 -15 29 -15 29 0 0 -2 9 -5 20
-3 11 -6 25 -6 30 -1 6 -8 16 -15 23 -7 8 -11 18 -8 23 4 5 2 9 -2 9 -5 0 -10
10 -10 22 -1 13 -7 24 -12 26 -5 2 -7 10 -4 18 3 8 0 14 -6 14 -6 0 -10 3 -9
8 0 4 -2 16 -6 27 -4 11 -13 34 -19 50 -7 17 -11 33 -9 38 1 4 -3 7 -8 7 -5 0
-9 3 -8 8 0 4 -2 14 -5 22 -13 30 -30 75 -32 83 -2 4 -4 10 -5 15 -1 4 -2 10
-1 15 0 4 -4 7 -11 7 -6 0 -9 3 -6 6 4 3 -4 29 -17 57 -23 54 -37 86 -40 100
-2 4 -4 9 -5 12 -1 3 -3 8 -4 13 -1 4 -7 17 -14 30 -7 12 -10 22 -7 22 3 0 -2
11 -11 24 -8 14 -14 26 -12 28 2 2 -5 24 -16 48 -10 25 -23 56 -28 70 -6 14
-15 33 -20 44 -5 10 -11 26 -13 36 -2 10 -13 38 -24 63 -12 25 -21 48 -21 51
0 2 -5 17 -12 33 -6 15 -12 30 -12 33 -4 18 -72 179 -84 198 -12 18 -12 22 -1
22 9 0 10 3 3 8 -9 6 -22 31 -29 52 -1 3 -9 22 -18 44 -9 21 -17 42 -17 45 0
4 -9 25 -19 47 -11 21 -17 42 -14 46 2 5 -1 8 -7 8 -6 0 -8 5 -5 10 3 6 1 10
-6 10 -7 0 -9 3 -6 7 4 3 2 12 -4 20 -6 7 -9 13 -6 13 3 0 0 12 -8 27 -8 15
-12 30 -9 35 3 4 0 8 -7 8 -7 0 -9 3 -6 7 4 3 2 12 -4 20 -6 7 -8 13 -5 13 4
0 1 7 -8 15 -8 9 -13 22 -10 30 4 8 1 15 -5 15 -6 0 -11 7 -11 15 0 8 -4 23
-9 33 -5 9 -24 55 -42 102 -18 47 -36 90 -41 96 -5 7 -8 16 -6 20 1 5 -8 28
-19 52 -12 23 -17 39 -12 36 5 -3 0 11 -11 31 -11 19 -20 42 -20 50 0 8 -4 15
-8 15 -5 0 -9 6 -9 13 -2 20 -41 117 -55 135 -11 13 -11 15 2 7 12 -7 12 -5
-1 11 -16 18 -34 71 -31 87 1 4 -2 7 -7 7 -5 0 -12 11 -15 25 -3 13 -11 37
-18 52 -6 15 -12 30 -13 33 -1 3 -7 18 -13 33 -7 16 -12 35 -12 43 0 8 -4 14
-10 14 -5 0 -10 7 -10 15 0 8 -8 34 -19 58 -10 23 -24 58 -31 77 -7 19 -18 49
-26 65 -17 40 -37 89 -39 95 -6 24 -29 87 -35 95 -4 6 -13 28 -20 50 -7 22
-18 46 -24 54 -6 8 -10 17 -10 20 1 3 -2 16 -7 29 -5 13 -9 27 -9 32 0 5 -9
25 -21 44 -12 20 -18 36 -15 36 4 0 1 10 -6 23 -7 12 -13 25 -14 30 -1 4 -3 9
-4 12 -1 3 -3 8 -4 13 -1 4 -7 17 -14 30 -7 12 -9 22 -5 22 4 0 3 4 -2 8 -6 4
-16 25 -23 47 -8 22 -22 59 -33 82 -10 24 -19 50 -19 58 0 8 -5 15 -10 15 -6
0 -9 3 -9 8 1 4 0 10 -1 15 -1 4 -3 10 -5 15 -3 12 -16 45 -31 79 -8 17 -14
36 -14 42 0 6 -4 11 -8 11 -4 0 -8 8 -9 18 -2 24 -36 116 -47 123 -5 4 -6 11
-2 17 3 6 3 12 -2 14 -4 1 -26 50 -49 108 -28 72 -37 107 -30 112 6 4 14 4 17
0 3 -4 11 -8 18 -9z"/>
<path d="M8625 13139 c-2 -3 -20 -5 -39 -4 -20 1 -36 -1 -36 -6 0 -4 -8 -6
-17 -5 -10 2 -35 -3 -57 -10 -21 -8 -42 -11 -47 -8 -5 3 -9 0 -9 -5 0 -6 -9
-11 -19 -11 -11 0 -22 -6 -24 -12 -4 -10 -6 -10 -6 -1 -1 8 -11 7 -33 -5 -18
-9 -34 -20 -36 -24 -2 -4 -10 -4 -18 -1 -8 3 -14 1 -14 -3 0 -5 -15 -15 -32
-23 -18 -8 -41 -21 -50 -29 -10 -8 -18 -12 -18 -8 0 4 -6 1 -14 -6 -7 -7 -24
-20 -36 -28 -96 -64 -225 -200 -281 -295 -14 -25 -29 -42 -32 -38 -4 3 -7 -1
-7 -10 0 -9 -9 -33 -20 -52 -11 -20 -18 -40 -15 -46 4 -5 2 -9 -4 -9 -9 0 -37
-68 -33 -82 1 -5 -3 -8 -10 -8 -6 0 -9 -3 -6 -6 4 -3 2 -20 -3 -37 -6 -18 -12
-41 -14 -52 -3 -11 -8 -31 -11 -45 -3 -14 -7 -46 -7 -72 -1 -27 -4 -48 -7 -48
-4 0 -4 -56 2 -197 1 -24 5 -43 8 -43 3 0 7 -16 8 -36 4 -48 6 -58 14 -64 4
-3 8 -20 10 -38 1 -18 6 -32 10 -32 4 0 8 -6 8 -14 0 -8 5 -27 12 -43 6 -15
10 -34 9 -42 -1 -7 2 -10 8 -6 10 5 16 -15 12 -38 -1 -5 3 -6 9 -2 5 3 10 0
10 -8 0 -16 78 -140 91 -145 5 -2 9 -10 9 -18 0 -8 5 -14 10 -14 6 0 10 -6 10
-14 0 -8 9 -18 20 -21 11 -3 20 -10 20 -15 0 -17 119 -125 154 -141 14 -7 24
-15 21 -18 -2 -4 17 -18 43 -31 26 -14 50 -28 53 -33 3 -5 12 -10 20 -11 8 -2
35 -13 61 -25 26 -12 50 -22 53 -21 3 0 19 -7 36 -15 17 -9 36 -14 42 -12 7 2
18 -2 25 -9 7 -7 21 -11 32 -9 11 2 20 1 20 -3 0 -7 27 -11 107 -15 24 -1 43
-4 43 -7 0 -6 135 -3 195 4 41 5 67 9 120 20 17 3 41 8 54 11 12 2 29 9 36 15
7 6 17 10 21 9 5 -1 27 6 49 16 22 9 45 18 51 19 7 1 18 7 25 13 8 6 24 14 37
17 12 4 22 11 22 16 0 5 10 12 23 15 12 4 36 17 52 30 17 12 34 24 39 26 6 2
36 29 68 60 32 31 60 54 63 51 3 -3 5 -1 5 5 0 5 13 25 30 44 33 39 35 41 72
90 15 20 24 39 21 43 -4 3 -1 6 5 6 7 0 12 7 12 15 0 8 5 15 10 15 6 0 10 7
10 15 0 8 5 15 11 15 5 0 8 4 4 9 -3 5 -1 12 5 16 6 4 8 10 5 15 -3 4 2 13 10
20 8 7 13 16 10 20 -3 5 -1 11 5 15 6 4 8 11 5 16 -4 5 -1 9 6 9 7 0 10 3 6 6
-3 3 3 29 14 58 12 28 20 52 19 54 -1 1 2 17 6 35 4 17 8 41 8 52 1 11 4 25 7
30 3 6 5 22 4 38 0 15 2 27 5 27 7 0 4 76 -4 89 -4 5 -2 13 4 16 8 5 7 12 -2
23 -10 12 -10 14 0 8 6 -4 12 -2 12 3 0 6 -4 11 -9 11 -9 0 -5 45 5 62 3 4 -1
6 -8 3 -9 -4 -14 8 -15 42 -2 26 -6 49 -10 52 -5 3 -9 15 -10 26 -5 46 -12 72
-36 125 -6 14 -9 31 -8 39 1 7 -2 10 -8 6 -6 -3 -11 1 -11 11 0 26 -104 198
-144 240 -6 6 -27 28 -46 50 -20 21 -60 59 -90 84 -30 25 -63 53 -74 63 -11 9
-26 17 -33 17 -7 0 -13 4 -13 8 0 11 -182 101 -218 108 -8 1 -21 6 -30 10 -9
4 -26 9 -37 11 -38 8 -50 11 -50 13 0 4 -42 11 -72 12 -18 1 -33 4 -33 7 0 8
-241 8 -245 0z m140 -359 c3 6 11 7 17 3 7 -3 30 -8 52 -9 22 -2 47 -6 55 -10
9 -4 29 -8 45 -10 16 -2 34 -8 40 -13 6 -5 20 -11 31 -13 11 -1 26 -9 33 -16
8 -7 18 -10 23 -7 5 4 9 3 9 -2 0 -4 12 -14 28 -20 45 -20 144 -109 205 -184
31 -39 107 -188 107 -211 0 -8 3 -18 7 -21 3 -4 8 -17 9 -29 2 -13 6 -39 9
-58 9 -48 12 -173 6 -185 -3 -5 -7 -21 -7 -35 -1 -14 -3 -25 -4 -25 -2 0 -11
-35 -14 -57 -1 -10 -5 -21 -9 -24 -4 -4 -7 -16 -7 -26 0 -10 -4 -18 -10 -18
-5 0 -10 -3 -9 -7 2 -16 -14 -53 -22 -53 -5 0 -8 -3 -7 -7 3 -14 -35 -82 -43
-77 -4 2 -10 -4 -14 -15 -7 -23 -85 -100 -160 -158 -34 -27 -67 -44 -60 -32 3
8 0 6 -8 -3 -8 -10 -17 -18 -20 -18 -3 0 -18 -5 -34 -12 -15 -6 -32 -12 -38
-13 -5 -2 -17 -4 -25 -6 -8 -2 -17 -7 -20 -11 -21 -27 -340 -27 -385 0 -5 4
-17 7 -25 9 -19 2 -151 65 -166 78 -33 29 -54 44 -54 40 0 -9 -103 98 -131
135 -14 19 -28 43 -32 53 -3 9 -10 17 -15 17 -4 0 -8 10 -9 22 -1 11 -6 24
-12 27 -9 6 -46 113 -56 166 -3 17 -7 37 -9 45 -2 8 2 21 8 29 8 11 8 13 0 8
-8 -5 -11 15 -9 66 2 39 4 72 5 72 0 0 3 14 4 30 2 17 9 50 17 75 7 25 12 48
11 53 -1 4 3 7 9 7 5 0 8 4 4 9 -3 5 -1 12 5 16 5 3 10 13 10 21 0 9 12 31 26
50 15 19 23 34 18 34 -4 0 1 7 12 15 10 8 16 15 12 15 -4 0 13 21 37 47 25 26
45 51 45 56 0 6 3 8 6 4 3 -3 17 4 30 16 50 47 104 83 104 71 0 -5 4 -4 8 1
13 19 62 46 72 40 6 -3 10 -1 10 4 0 6 3 10 8 9 7 -1 18 2 67 21 11 5 32 7 48
7 15 -1 27 1 27 5 0 4 20 7 45 6 24 0 48 2 51 6 4 4 13 2 20 -4 8 -7 14 -7 19
1z"/>
<path d="M6105 10880 c-3 -4 -18 -7 -35 -6 -16 1 -30 -2 -30 -7 0 -5 -6 -7
-14 -4 -7 3 -19 0 -25 -6 -6 -6 -11 -8 -11 -5 0 8 -129 -38 -202 -71 -27 -12
-48 -26 -48 -31 0 -6 -3 -9 -7 -8 -11 2 -46 -14 -59 -26 -6 -6 -22 -18 -34
-26 -41 -27 -84 -64 -130 -110 -73 -73 -170 -199 -170 -220 0 -6 -4 -9 -8 -6
-4 2 -9 -5 -9 -17 -1 -12 -7 -23 -13 -25 -5 -2 -10 -8 -10 -13 0 -6 -10 -31
-22 -57 -11 -26 -21 -53 -21 -59 0 -7 -5 -13 -10 -13 -5 0 -7 -7 -3 -15 3 -8
2 -15 -2 -15 -4 0 -9 -8 -10 -17 -6 -50 -8 -58 -14 -63 -4 -3 -8 -22 -10 -43
-1 -20 -7 -37 -13 -37 -5 0 -3 -5 5 -10 8 -5 10 -10 4 -10 -5 0 -11 -19 -12
-42 -2 -24 -5 -56 -8 -71 -3 -20 -1 -26 7 -21 8 5 9 3 4 -5 -9 -15 -11 -93 -3
-107 3 -5 4 -17 3 -26 -2 -10 0 -18 5 -18 4 0 8 -10 9 -22 2 -52 5 -78 11 -78
3 0 6 -9 7 -20 2 -30 42 -138 71 -195 14 -27 25 -53 24 -57 -1 -5 3 -8 9 -8 5
0 7 -4 4 -10 -3 -5 -2 -10 2 -10 5 0 19 -18 33 -40 14 -22 29 -40 34 -40 5 0
7 -3 3 -6 -13 -13 152 -179 231 -232 28 -19 52 -39 52 -44 0 -5 4 -7 9 -3 5 3
15 -1 23 -8 14 -14 17 -16 48 -24 11 -3 20 -9 20 -14 0 -5 6 -9 14 -9 7 0 26
-7 42 -14 15 -8 31 -13 36 -10 4 3 8 0 8 -5 0 -6 9 -11 20 -11 11 0 20 -4 20
-8 0 -4 14 -9 31 -10 18 -1 37 -6 43 -9 6 -4 20 -8 31 -9 29 -3 63 -12 75 -19
6 -3 10 -1 10 5 0 6 5 8 13 3 6 -4 32 -9 57 -10 25 -1 53 -5 63 -7 9 -2 17 -1
17 2 0 4 28 8 63 9 105 4 137 7 137 15 0 4 14 6 30 4 17 -2 30 1 30 5 0 5 8 9
18 9 10 0 22 3 26 7 4 4 19 9 34 11 15 2 30 9 34 15 4 7 8 8 8 3 0 -5 6 -3 13
3 8 6 17 8 20 4 4 -3 7 -1 7 6 0 7 4 10 9 6 5 -3 16 2 24 10 9 8 21 15 27 15
13 0 62 30 72 45 4 5 8 6 8 2 0 -9 73 43 78 56 2 4 8 7 14 7 6 0 28 18 49 40
21 22 43 40 49 40 5 0 10 4 10 8 0 5 20 31 45 58 25 27 45 51 45 55 0 3 9 16
20 29 11 13 20 29 20 37 0 8 5 11 10 8 6 -3 10 1 10 9 0 9 5 16 10 16 6 0 10
3 9 8 -2 14 13 52 20 48 4 -3 7 3 8 12 1 9 13 42 27 73 14 31 22 60 19 63 -4
3 -1 6 5 6 7 0 11 3 11 8 -1 4 0 9 1 12 3 8 10 54 12 78 1 12 5 22 8 22 7 0
11 29 13 102 1 32 7 58 12 58 6 0 3 5 -5 10 -10 6 -11 10 -2 10 14 0 12 21 -3
32 -6 5 -6 8 2 8 7 0 10 11 7 28 -2 15 -6 45 -7 67 -1 22 -6 46 -11 54 -7 11
-6 12 5 6 11 -7 12 -6 4 6 -6 8 -12 28 -14 44 -2 17 -7 38 -12 47 -5 9 -9 28
-9 42 0 14 -5 26 -12 26 -6 0 -9 3 -5 6 3 4 0 19 -9 35 -8 16 -14 32 -14 36 1
14 -75 157 -92 175 -10 10 -18 22 -18 27 0 13 -34 53 -126 145 -88 89 -119
116 -134 116 -6 0 -10 4 -10 9 0 5 -13 14 -30 21 -16 7 -30 15 -30 19 0 8 -62
36 -72 33 -5 -1 -8 1 -8 6 0 4 -15 13 -32 20 -18 7 -41 18 -51 23 -10 5 -22 7
-27 4 -6 -4 -10 -1 -10 5 0 6 -4 9 -9 5 -5 -3 -12 -1 -16 5 -3 5 -17 10 -30
10 -13 0 -26 4 -29 9 -3 4 -17 7 -31 6 -14 -2 -25 0 -25 4 0 5 -11 6 -25 3
-14 -2 -25 0 -25 5 0 12 -308 14 -315 3z m192 -363 c6 -4 15 -3 18 3 5 8 12 7
23 -2 13 -11 14 -11 7 1 -6 11 -5 12 6 5 16 -9 37 -15 59 -15 8 -1 31 -7 50
-14 19 -7 38 -13 42 -14 33 -6 167 -80 199 -110 12 -11 26 -21 30 -21 4 0 11
-9 14 -20 3 -11 12 -20 18 -20 7 0 19 -9 27 -21 8 -11 25 -33 37 -47 13 -15
23 -32 23 -39 0 -6 4 -13 8 -15 13 -5 72 -129 74 -154 1 -13 5 -24 8 -24 5 0
11 -31 13 -72 1 -10 5 -18 9 -18 8 0 3 -34 -8 -52 -4 -6 -3 -8 4 -4 22 13 -3
-224 -27 -259 -4 -5 -7 -17 -6 -25 1 -8 -10 -30 -24 -49 -13 -19 -19 -31 -13
-27 6 4 4 -7 -6 -23 -9 -17 -20 -31 -24 -31 -5 0 -8 -6 -8 -14 0 -7 -17 -32
-39 -55 -21 -22 -37 -41 -35 -41 2 0 -5 -9 -16 -20 -11 -11 -22 -20 -25 -20
-4 0 -22 -16 -42 -35 -20 -19 -42 -35 -49 -35 -7 0 -17 -7 -22 -16 -5 -9 -12
-15 -15 -15 -7 1 -68 -24 -101 -41 -11 -6 -29 -12 -40 -13 -12 -2 -40 -9 -64
-15 -24 -6 -47 -8 -53 -5 -5 4 -9 2 -9 -2 0 -11 -65 -11 -75 -1 -4 4 -15 4
-24 -1 -9 -5 -25 -7 -36 -4 -11 2 -33 6 -50 8 -73 9 -204 54 -236 82 -9 7 -19
10 -22 6 -4 -3 -7 -1 -7 5 0 7 -6 12 -13 12 -7 0 -20 8 -29 18 -23 24 -47 43
-51 40 -2 -2 -24 22 -50 52 -26 30 -54 63 -62 73 -9 10 -21 30 -28 45 -6 15
-17 33 -24 40 -7 8 -11 18 -8 23 4 5 1 9 -5 9 -6 0 -8 5 -5 10 3 6 1 10 -4 10
-6 0 -10 3 -9 8 0 4 -1 14 -4 22 -22 64 -28 91 -23 100 3 5 1 10 -5 10 -6 0
-8 5 -5 10 3 6 3 15 -1 22 -8 13 -12 178 -4 178 3 0 6 19 8 42 1 23 7 45 12
48 5 3 8 14 6 25 -2 11 3 29 11 41 7 11 10 24 6 27 -3 4 -1 7 5 7 7 0 11 3 11
8 -3 12 25 72 33 72 4 0 8 7 8 15 0 8 5 15 10 15 6 0 9 4 8 9 -5 15 111 139
161 173 25 17 49 36 53 42 5 7 8 7 8 1 0 -6 4 -5 8 1 8 13 152 76 152 67 0 -3
6 -1 13 5 7 6 22 11 32 11 28 1 64 7 69 12 7 7 110 4 123 -4z"/>
<path d="M7818 8164 c-4 -3 -29 -8 -55 -9 -26 -2 -48 -4 -48 -5 0 -1 -16 -3
-35 -5 -19 -2 -36 -4 -37 -5 -2 -1 -7 -4 -13 -5 -5 -1 -11 -3 -12 -5 -2 -1
-12 -3 -23 -5 -26 -5 -59 -13 -62 -15 -2 -2 -6 -3 -10 -4 -5 -1 -18 -7 -29
-14 -12 -6 -24 -9 -27 -5 -3 3 -13 -2 -22 -11 -9 -9 -24 -16 -33 -16 -9 0 -28
-9 -42 -20 -14 -11 -31 -20 -37 -20 -7 0 -13 -5 -13 -11 0 -5 -4 -8 -9 -5 -5
3 -20 -5 -35 -19 -14 -13 -26 -21 -26 -17 0 4 -7 -2 -15 -12 -8 -11 -15 -16
-15 -11 0 4 -11 -4 -25 -19 -14 -15 -25 -25 -25 -22 0 8 -103 -97 -135 -138
-16 -21 -35 -44 -41 -50 -5 -6 -13 -19 -17 -28 -3 -10 -11 -18 -17 -18 -5 0
-10 -9 -10 -20 0 -11 -4 -20 -9 -20 -5 0 -15 -16 -22 -35 -7 -19 -17 -35 -23
-35 -5 0 -7 -3 -3 -6 3 -3 -3 -22 -13 -42 -11 -19 -17 -39 -14 -44 3 -4 1 -8
-4 -8 -5 0 -18 -36 -28 -80 -11 -44 -21 -80 -24 -80 -3 0 -5 -17 -4 -38 0 -20
-4 -43 -9 -49 -6 -9 -5 -13 4 -13 9 0 10 -3 3 -8 -14 -9 -14 -135 0 -144 8 -5
8 -8 0 -8 -12 0 -12 -79 0 -98 4 -7 5 -12 3 -12 -3 0 -1 -17 4 -37 5 -21 12
-49 15 -63 11 -46 8 -37 47 -140 11 -30 23 -57 26 -60 3 -3 7 -12 9 -20 2 -8
8 -16 13 -18 5 -2 9 -10 9 -18 0 -15 39 -76 53 -82 4 -2 7 -10 7 -18 0 -8 4
-14 8 -14 5 0 17 -16 28 -35 10 -19 24 -35 31 -35 7 0 13 -4 13 -9 0 -4 20
-29 45 -54 25 -26 45 -45 45 -42 0 3 16 -11 37 -30 20 -19 40 -32 45 -29 4 3
8 1 8 -4 0 -16 197 -127 244 -137 6 -1 18 -5 26 -8 8 -3 29 -9 45 -13 40 -10
44 -11 50 -14 3 -1 13 -3 23 -4 9 -1 22 -4 27 -8 14 -9 395 -8 395 1 0 4 8 7
18 8 36 2 78 11 107 23 17 6 39 14 49 16 11 2 22 7 25 11 3 5 11 8 16 8 20 1
145 67 145 76 0 6 5 7 10 4 6 -3 10 -2 10 4 0 5 9 13 21 16 12 4 29 14 38 23
10 10 27 24 37 32 54 43 85 70 77 70 -4 0 6 9 22 20 17 11 26 20 22 20 -4 0
10 19 33 42 22 23 40 48 40 55 0 7 3 13 8 13 9 0 44 52 42 63 -1 5 7 15 17 23
10 7 14 14 9 14 -5 0 -1 9 9 20 10 11 14 20 9 20 -5 0 -3 4 3 8 7 4 14 18 16
31 2 12 10 27 18 32 8 5 11 9 7 9 -4 0 2 25 13 57 10 31 19 64 19 75 0 10 4
18 8 18 4 0 8 17 7 38 0 27 4 36 15 34 11 -2 12 0 4 7 -6 7 -8 32 -4 64 7 69
0 272 -10 272 -2 0 -4 9 -5 20 -3 20 -9 50 -20 95 -9 36 -11 42 -22 70 -6 14
-9 28 -6 33 2 4 -1 7 -6 7 -6 0 -11 7 -11 15 0 8 -5 15 -12 15 -6 0 -9 3 -5 6
8 8 -13 64 -25 64 -5 0 -6 5 -3 10 3 6 1 10 -5 10 -6 0 -9 4 -6 9 3 5 -1 12
-9 15 -8 3 -14 9 -13 14 3 10 -54 94 -92 134 -14 15 -33 38 -44 52 -10 14 -22
23 -27 21 -4 -3 -10 4 -14 15 -3 11 -11 20 -17 20 -6 0 -18 8 -27 18 -9 9 -34
30 -56 47 -22 16 -43 33 -46 38 -4 5 -12 6 -18 3 -6 -4 -11 -3 -11 2 0 5 -16
17 -35 26 -19 9 -35 21 -35 26 0 6 -3 9 -7 9 -17 -3 -73 14 -73 22 0 5 -8 9
-18 9 -10 0 -23 5 -30 12 -7 7 -12 9 -12 5 0 -3 -19 0 -41 9 -49 17 -80 24
-129 29 -19 2 -46 7 -60 10 -39 9 -99 11 -93 3 2 -5 0 -8 -6 -8 -5 0 -13 5
-16 10 -5 8 -11 8 -20 0 -9 -8 -14 -8 -17 0 -2 6 -6 8 -10 4z m169 -385 c14
-12 16 -12 8 0 -6 11 -4 13 11 7 10 -5 35 -13 54 -18 19 -6 59 -21 88 -34 29
-13 57 -24 61 -24 5 0 11 -3 13 -7 3 -9 64 -53 73 -53 3 0 31 -26 63 -58 61
-62 140 -175 147 -212 3 -13 8 -26 13 -29 9 -6 32 -81 35 -116 2 -11 6 -26 10
-32 5 -8 3 -13 -5 -13 -10 0 -10 -2 -1 -8 13 -8 16 -202 3 -202 -3 0 -6 -10
-7 -22 -3 -76 -86 -258 -133 -295 -8 -7 -12 -13 -8 -13 17 0 -149 -150 -167
-150 -3 0 -13 -7 -22 -15 -8 -8 -19 -13 -24 -10 -5 4 -9 2 -9 -3 0 -6 -15 -16
-32 -23 -89 -33 -102 -38 -110 -33 -4 3 -8 1 -8 -4 0 -5 -6 -9 -12 -9 -47 -3
-68 -9 -68 -18 0 -5 -5 -3 -10 5 -5 8 -10 11 -10 5 0 -6 -25 -9 -57 -9 -98 2
-143 8 -143 17 0 4 -5 5 -10 2 -11 -7 -118 22 -134 37 -6 4 -18 8 -27 8 -10 0
-19 3 -21 8 -1 4 -23 18 -48 32 -25 13 -54 32 -64 42 -11 10 -26 18 -35 18 -8
0 -12 3 -8 6 3 3 -19 31 -48 62 -30 30 -52 59 -49 64 3 4 -1 8 -10 8 -8 0 -17
13 -21 30 -4 17 -10 30 -15 30 -8 0 -25 41 -21 49 2 2 -2 7 -9 11 -6 4 -12 13
-13 21 -2 8 -5 19 -8 24 -12 21 -27 89 -33 153 -1 17 -6 35 -9 38 -3 4 -2 15
4 25 6 13 6 19 0 19 -7 0 -7 9 -1 25 6 17 6 25 -1 25 -6 0 -7 5 -4 11 4 5 9
25 11 42 6 39 31 127 46 165 6 15 11 30 10 35 -1 4 2 7 8 7 6 0 10 9 10 20 0
11 3 20 8 20 4 0 16 16 27 36 42 78 247 259 269 237 3 -4 6 -1 6 6 0 7 5 9 10
6 6 -3 10 -2 10 4 0 9 22 17 100 38 8 3 25 5 38 6 12 0 22 4 22 8 0 20 233 17
257 -2z"/>
</g>
</svg>
